<svg width="18" height="18" viewBox="0 0 18 18" fill="none" xmlns="http://www.w3.org/2000/svg">
<path fill-rule="evenodd" clip-rule="evenodd" d="M2.51135 2.7632C4.14889 1.05996 6.45066 0 9 0C12.247 0 15.0924 1.71946 16.6753 4.29751C15.9133 3.55896 15.0567 2.93994 14.1129 2.448C10.7357 0.684 6.4172 0.684 3.05181 2.46C2.86824 2.55636 2.68807 2.65745 2.51135 2.7632ZM0.179461 10.7972C0.0617743 10.2165 0 9.61544 0 9C0 8.49784 0.0411258 8.00529 0.120193 7.52553C1.83104 4.62321 5.04955 2.784 8.54705 2.784C13.0781 2.784 16.8928 5.80063 17.9585 9.8701C17.7376 12.1729 16.6489 14.2224 15.0232 15.6875C14.8943 15.701 14.7633 15.708 14.6306 15.708C12.6302 15.708 11.0064 14.124 11.0064 12.18C11.0064 10.896 9.91204 9.852 8.55882 9.852C7.2056 9.852 6.11126 10.896 6.11126 12.18C6.11126 14.232 6.88789 16.152 8.31171 17.592C8.45296 17.7345 8.59347 17.869 8.7345 17.9962C8.08865 17.9774 7.45985 17.8907 6.85503 17.7428C5.61006 16.1788 4.93455 14.2435 4.93455 12.192C4.93455 10.248 6.55841 8.664 8.55882 8.664C10.5592 8.664 12.1831 10.248 12.1831 12.192C12.1831 13.476 13.2774 14.52 14.6306 14.52C15.9839 14.52 17.0782 13.476 17.0782 12.192C17.0782 7.668 13.2539 3.996 8.54705 3.996C5.20519 3.996 2.14574 5.892 0.768989 8.832C0.487395 9.42842 0.289979 10.0881 0.179461 10.7972ZM4.05058 16.5181C3.37945 16.0753 2.7711 15.5452 2.24176 14.9438C2.03797 14.0745 1.93393 13.1495 1.93393 12.192C1.93393 8.628 4.92278 5.724 8.59412 5.724C12.2655 5.724 15.2543 8.628 15.2543 12.192C15.2543 12.528 14.9954 12.792 14.666 12.792C14.3365 12.792 14.0776 12.528 14.0776 12.192C14.0776 9.288 11.6183 6.924 8.59412 6.924C5.56997 6.924 3.11065 9.288 3.11065 12.192C3.11065 13.7915 3.43329 15.278 4.05058 16.5181ZM12.8594 17.1328C12.324 17.3873 11.7596 17.5905 11.1724 17.7361C11.0226 17.6508 10.877 17.5588 10.7357 17.46C8.98243 16.248 7.93516 14.28 7.93516 12.192C7.93516 11.856 8.19404 11.592 8.52352 11.592C8.853 11.592 9.11187 11.856 9.11187 12.192C9.11187 13.884 9.95911 15.48 11.3947 16.464C11.8399 16.7709 12.3251 16.9926 12.8594 17.1328Z" fill="#FFB700"/>
<path fill-rule="evenodd" clip-rule="evenodd" d="M2.51135 2.7632C4.14889 1.05996 6.45066 0 9 0C12.247 0 15.0924 1.71946 16.6753 4.29751C15.9133 3.55896 15.0567 2.93994 14.1129 2.448C10.7357 0.684 6.4172 0.684 3.05181 2.46C2.86824 2.55636 2.68807 2.65745 2.51135 2.7632ZM0.179461 10.7972C0.0617743 10.2165 0 9.61544 0 9C0 8.49784 0.0411258 8.00529 0.120193 7.52553C1.83104 4.62321 5.04955 2.784 8.54705 2.784C13.0781 2.784 16.8928 5.80063 17.9585 9.8701C17.7376 12.1729 16.6489 14.2224 15.0232 15.6875C14.8943 15.701 14.7633 15.708 14.6306 15.708C12.6302 15.708 11.0064 14.124 11.0064 12.18C11.0064 10.896 9.91204 9.852 8.55882 9.852C7.2056 9.852 6.11126 10.896 6.11126 12.18C6.11126 14.232 6.88789 16.152 8.31171 17.592C8.45296 17.7345 8.59347 17.869 8.7345 17.9962C8.08865 17.9774 7.45985 17.8907 6.85503 17.7428C5.61006 16.1788 4.93455 14.2435 4.93455 12.192C4.93455 10.248 6.55841 8.664 8.55882 8.664C10.5592 8.664 12.1831 10.248 12.1831 12.192C12.1831 13.476 13.2774 14.52 14.6306 14.52C15.9839 14.52 17.0782 13.476 17.0782 12.192C17.0782 7.668 13.2539 3.996 8.54705 3.996C5.20519 3.996 2.14574 5.892 0.768989 8.832C0.487395 9.42842 0.289979 10.0881 0.179461 10.7972ZM4.05058 16.5181C3.37945 16.0753 2.7711 15.5452 2.24176 14.9438C2.03797 14.0745 1.93393 13.1495 1.93393 12.192C1.93393 8.628 4.92278 5.724 8.59412 5.724C12.2655 5.724 15.2543 8.628 15.2543 12.192C15.2543 12.528 14.9954 12.792 14.666 12.792C14.3365 12.792 14.0776 12.528 14.0776 12.192C14.0776 9.288 11.6183 6.924 8.59412 6.924C5.56997 6.924 3.11065 9.288 3.11065 12.192C3.11065 13.7915 3.43329 15.278 4.05058 16.5181ZM12.8594 17.1328C12.324 17.3873 11.7596 17.5905 11.1724 17.7361C11.0226 17.6508 10.877 17.5588 10.7357 17.46C8.98243 16.248 7.93516 14.28 7.93516 12.192C7.93516 11.856 8.19404 11.592 8.52352 11.592C8.853 11.592 9.11187 11.856 9.11187 12.192C9.11187 13.884 9.95911 15.48 11.3947 16.464C11.8399 16.7709 12.3251 16.9926 12.8594 17.1328Z" fill="url(#paint0_linear)"/>
</svg>