<svg width="121" height="40" viewBox="0 0 121 40" fill="none" xmlns="http://www.w3.org/2000/svg">
<path fill-rule="evenodd" clip-rule="evenodd" d="M63.3114 17.5886H63.4605L60.5 21.8494C58.6741 21.3463 57.2933 20.253 56.4735 18.7065V21.8494H51.0516V9.05514H50.9957L42.1082 21.85H37.5993V9.05514H37.5434L29.2894 21.85C24.4203 21.85 19.5511 21.85 14.682 21.85V18.7065H8.64522L6.81932 21.85H0L14.6447 0.409903H21.5013C23.0291 0.409903 24.1471 0.503063 24.8923 0.670751C27.3145 1.21108 29.3267 3.07428 29.3267 5.96223C29.3267 7.78817 28.4697 9.39052 26.8487 10.2849C28.0598 10.6948 28.9541 11.3469 29.5317 12.2226L37.6366 0.409903H43.0026V12.0735H43.0585L51.0889 0.409903H56.4735V4.0804C57.5542 1.62098 60.3676 0 63.4232 0C64.8392 0 66.069 0.316744 67.1869 0.894336C69.46 2.06815 70.5406 3.76366 70.5779 6.61435H65.2119C64.9883 5.08653 64.3548 4.5462 63.2928 4.5462C62.2867 4.5462 61.4296 5.27285 61.4296 6.22308C61.4296 7.49006 62.5662 8.06765 64.8952 9.07377C66.2739 9.67 67.3546 10.2476 68.193 10.8252L65.2678 14.9987C64.8664 13.828 63.1889 13.1677 61.6098 12.5462C61.4298 12.4753 61.251 12.4049 61.0756 12.3344C58.6721 11.3469 57.1629 10.1731 56.4735 8.62661V14.682H61.0756C61.0942 16.4334 61.9513 17.5886 63.3114 17.5886ZM11.1419 14.2907H14.6634V8.45892H14.6074L11.1419 14.2907ZM22.0975 5.23559H20.1225V8.45892H22.0789C23.3831 8.45892 24.0911 7.89996 24.0911 6.80067C24.0911 5.72002 23.4204 5.23559 22.0975 5.23559ZM20.0853 16.8992H22.6937C24.2029 16.8992 25.1345 16.2471 25.1159 14.8869C25.1159 13.6759 24.2961 13.0796 22.7124 13.0796H20.0853V16.8992ZM111.028 6.33481C111.028 7.62453 112.183 8.21249 114.512 9.23668C119.189 11.2851 120.381 13.011 120.4 15.856C120.4 20.0476 117.587 21.8494 112.985 21.8494C108.364 21.8494 105.308 20.0665 105.308 15.4008V14.718H110.712C110.73 16.6336 111.606 17.8854 112.947 17.8854C114.065 17.8854 114.978 16.8991 114.978 15.6474C114.978 13.9944 113.068 13.1682 111.288 12.3984C111.087 12.3114 110.888 12.2252 110.693 12.1386C109.221 11.4937 108.122 10.735 107.302 9.88154C106.445 12.8782 104.079 15.1163 99.4019 15.1163H96.8679V21.8494H91.651V12.7455C90.3467 14.1869 88.2414 15.1163 85.1112 15.1163H82.8381V21.8494H77.4162V18.7958H71.398L69.5721 21.8494H63.0509L77.5093 0.417264H84.664C86.8998 0.398297 88.5767 0.720727 89.6946 1.23282C90.4399 1.59319 91.1107 2.12425 91.651 2.75014V0.417264H98.8429C101.116 0.379331 102.812 0.70176 103.929 1.23282C104.954 1.72595 105.811 2.50358 106.445 3.47087C107.693 1.36559 110.264 0 113.04 0C114.438 0 115.686 0.322431 116.804 0.910392C119.077 2.10528 120.158 3.83123 120.195 6.7331H114.811C114.587 5.17785 113.953 4.62782 112.891 4.62782C111.885 4.62782 111.028 5.36752 111.028 6.33481ZM73.8761 14.4904H77.3975V8.57285H77.3417L73.8761 14.4904ZM82.8194 9.80567H85.2789C86.6949 9.80567 87.5706 9.17978 87.5706 7.87109C87.5706 6.69517 86.7881 6.12618 85.2975 6.12618H82.8194V9.80567ZM96.8493 9.80567H99.3087C100.725 9.80567 101.6 9.17978 101.6 7.87109C101.6 6.69517 100.818 6.12618 99.3274 6.12618H96.8493V9.80567Z" fill="white"/>
<path d="M62.1378 30.669L60.2187 25.2471L58.3741 30.6876L52.6168 30.8367L57.219 34.2836L55.5793 39.78L60.2746 36.4821L65.0071 39.7427L63.3116 34.2463L67.8764 30.7621L62.1378 30.669Z" fill="white"/>
<path d="M47.3833 32.1587H43.3215L48.4453 36.2391H52.4884L47.3833 32.1587Z" fill="#FF3252"/>
<path d="M40.2101 32.1587H36.1483L41.2535 36.2391H45.3152L40.2101 32.1587Z" fill="#FF3252"/>
<path d="M38.1407 36.2401L33.0355 32.1597H2.34869L38.1407 36.2401Z" fill="#FF3252"/>
<path fill-rule="evenodd" clip-rule="evenodd" d="M7.45383 36.2214C2.34868 36.2214 2.34869 32.1597 2.34869 32.1597L38.14 36.2397L7.45383 36.2214Z" fill="#891950"/>
<path d="M73.1051 32.1592H77.1669L72.0431 36.2396H67.9999L73.1051 32.1592Z" fill="#2DC6E0"/>
<path d="M80.2782 32.1592H84.34L79.2349 36.2396H75.1731L80.2782 32.1592Z" fill="#2DC6E0"/>
<path d="M82.3477 36.2406L87.4528 32.1602H118.14L82.3477 36.2406Z" fill="#2DC6E0"/>
<path fill-rule="evenodd" clip-rule="evenodd" d="M113.035 36.2219C118.14 36.2219 118.14 32.1602 118.14 32.1602L82.3483 36.2402L113.035 36.2219Z" fill="#0E6B75"/>
</svg>
