<svg xmlns="http://www.w3.org/2000/svg" viewBox="0 0 160 28" style="enable-background:new 0 0 160 28" xml:space="preserve">
<path style="fill-rule:evenodd;clip-rule:evenodd;fill:#fff" d="M103.1 6.2c2.8 0 5.4 1.7 6.6 4.7h2.8v6.6h-2.8c-1.4 3-3.8 4.5-6.5 4.5-4.3 0-7.3-3.6-7.3-7.9-.1-4.2 2.9-7.9 7.2-7.9zm9.3 18.4c-2.5 2.1-5.7 3.3-9.2 3.3-3.8 0-7.3-1.3-10.1-4-2.9-2.8-4.2-6.2-4.2-10.3 0-7.1 6.2-13.5 14-13.5 3.7 0 6.7 1 9.5 3.3l.1.1V.7h8.7c1.9 0 3.4.1 4.3.3 2 .4 3.7 1.6 4.7 3.3 2.6-2.6 6.2-4.1 10.3-4.1h10c5.5 0 9.2 3.5 9.2 7.8s-2.4 8.1-9 13.7h9.2V28h-19.7c-3.8 0-7-1.4-9.5-3.7-.4.5-.9 1-1.5 1.3-2.1 1.5-3.5 1.8-7.8 1.8h-9v-2.8zm12-15.9c0 1.4-.9 2.1-2.6 2.1h-2.7V6.7h2.8c1.7 0 2.5.6 2.5 2zm1.4 10.2c0 1.7-1.2 2.6-3.1 2.6h-3.6v-4.9h3.6c2 0 3.1.8 3.1 2.3zm24.4-12.7c1.5 0 2.6 1 2.6 2.6 0 2.1-1.7 4.8-4.8 7.9-1.4 1.4-3.6 3.1-6.5 5-.3.2-.6.3-1 .3-4.4 0-7.3-3.7-7.3-7.9s3-7.8 7.3-7.8h.7l9-.1zM85.5 13v1.1c0 3.7 1.2 7.3 3.4 10.3-1.5 2.3-4.4 3.6-8.2 3.6-4.1 0-7.2-1.5-8.8-4.3v3.8H65v-16h-.1l-11.3 16h-5.8v-16h-.1l-10.5 16H18.6v-3.9h-7.8l-2.4 3.9H0L18.6.7h8.7c1.9 0 3.4.1 4.3.3 3.1.7 5.6 3 5.6 6.6 0 2.3-1.1 4.3-3.1 5.4 1.5.5 2.7 1.3 3.4 2.4L47.9.7h6.9v14.7h.1L65 .7h6.9v4.6c1.4-3.1 5-5.1 8.9-5.1 1.7 0 3.3.4 4.8 1.1 1.3.7 2.3 1.6 3 2.7-1 1.4-1.8 2.9-2.3 4.6H83C82.7 6.7 81.9 6 80.5 6c-1.3 0-2.4.9-2.4 2.1 0 1.6 1.5 2.3 4.4 3.6 1.1.3 2.1.8 3 1.3zM14 18.2h4.5v-7.4h-.1L14 18.2zM28.1 6.7h-2.6v4.2H28c1.7 0 2.6-.7 2.6-2.1.1-1.5-.8-2.1-2.5-2.1zm-2.6 14.8h3.4c1.9 0 3.1-.8 3.2-2.6 0-1.5-1.1-2.3-3.1-2.3h-3.4v4.9zm52.2-2.9c0 2.2 1.1 3.6 2.9 3.6.3 0 .7-.1 1-.2.3-.1.6-.3.8-.6.2-.2.4-.5.6-.8.1-.3.2-.6.2-1 0-1.9-2.5-2.9-4.7-3.8-.2-.1-.5-.2-.7-.3-3.1-1.2-5-2.7-5.9-4.7v7.6h5.8z"/>
</svg>