<?xml version="1.0" encoding="UTF-8" standalone="no"?>
<svg xmlns="http://www.w3.org/2000/svg" width="256" height="256" viewBox="0 0 1024 1024" preserveAspectRatio="xMinYMin meet">
<path style="fill:#25272c; stroke:none;" d="M36 3L45 1C41.4755 -0.475311 38.1441 -0.307251 36 3z"/>
<path style="fill:#010a15; stroke:none;" d="M45 0L45 1L60 8L45 0z"/>
<path style="fill:#8f8642; stroke:none;" d="M38 1L28 8L28 9C35.2699 12.4985 51.4652 13.1965 58 8L47 1L46 5L55 8L55 9L31 9L31 8L40 5L38 1z"/>
<path style="fill:#b1aa69; stroke:none;" d="M39 1L37 9L49 9L47 1L39 1z"/>
<path style="fill:#00060c; stroke:none;" d="M26 7L26 8L36 2L26 7z"/>
<path style="fill:#040f20; stroke:none;" d="M31 8L31 9C35.0887 8.69158 37.1349 7.69976 39 4L31 8M47 5L55 9L47 5z"/>
<path style="fill:#252b26; stroke:none;" d="M23 19L19 19L19 20L23 22L24 22L24 10L29 10C22.5802 5.35423 23.0005 14.8472 23 19z"/>
<path style="fill:#40422e; stroke:none;" d="M56 9L56 10L60 8L56 9z"/>
<path style="fill:#b1aa69; stroke:none;" d="M24 10C24.6886 13.1971 26.0541 12.746 29 12L24 10z"/>
<path style="fill:#fad9a6; stroke:none;" d="M26 10L26 11C37.0026 14.4331 47.8911 13.2917 59 11L42 11.8711L26 10z"/>
<path style="fill:#b1aa69; stroke:none;" d="M52 12L52 13L58 14L62 13L61 10L52 12z"/>
<path style="fill:#a08f72; stroke:none;" d="M37 11L37 12L46 12L37 11z"/>
<path style="fill:#5a5b3e; stroke:none;" d="M27 12L27 13L30 13L27 12z"/>
<path style="fill:#595a3d; stroke:none;" d="M58.6667 12.3333L59.3333 12.6667L58.6667 12.3333z"/>
<path style="fill:#8c8341; stroke:none;" d="M24 13L25 17L26 17L26 13L24 13z"/>
<path style="fill:#040f20; stroke:none;" d="M26 13L29 19L26 18L30 20L28 14L31 15L26 13z"/>
<path style="fill:#585338; stroke:none;" d="M31 15L28 14L30 20L26 18L29 19L24 16C24.4072 28.399 61.32 28.2746 62 16L59 20L55 19C48.4884 25.4983 38.519 23.2775 31 20L34 14C32.1187 12.9361 30.9851 12.7633 31 15z"/>
<path style="fill:#b6ad6d; stroke:none;" d="M34 13L35 16L36 16L37 13L34 13z"/>
<path style="fill:#6e674f; stroke:none;" d="M37.6667 13.3333L38.3333 13.6667L37.6667 13.3333z"/>
<path style="fill:#b2a071; stroke:none;" d="M39.6667 13.3333L40.3333 13.6667L39.6667 13.3333z"/>
<path style="fill:#595644; stroke:none;" d="M41 13L41 14L44 14L41 13z"/>
<path style="fill:#6b6739; stroke:none;" d="M45 13L45 14L50 14L50 21L51 21L51 13L45 13z"/>
<path style="fill:#040f20; stroke:none;" d="M51 13L51 21L55 21L53 19L53 18C55.7639 16.937 54.2109 16.2601 52 16L52 15L57 20L59 20L60 13L51 13z"/>
<path style="fill:#8a8241; stroke:none;" d="M60 13L59 18L62 13L60 13z"/>
<path style="fill:#151e24; stroke:none;" d="M32 14L31 20L33 18L34 18C34.2601 20.2109 34.937 21.7639 36 19L37 19L39 21L39 14L36 16L32 14z"/>
<path style="fill:#4a4b31; stroke:none;" d="M39 14L39 20L40 20L39 14z"/>
<path style="fill:#040f20; stroke:none;" d="M40 14L40 21C45.714 20.0463 45.714 14.9537 40 14z"/>
<path style="fill:#464830; stroke:none;" d="M44 14L44 21C46.4034 18.9003 46.4034 16.0997 44 14z"/>
<path style="fill:#040f20; stroke:none;" d="M46 14L46 21L47 21L48 19L50 21L50 14L46 14z"/>
<path style="fill:#646341; stroke:none;" d="M41 15L43 20L43 15L41 15z"/>
<path style="fill:#817a3f; stroke:none;" d="M52 15L52 16L55 16L53 18L53 19L57 20C56.4235 16.5256 55.4744 15.5765 52 15z"/>
<path style="fill:#aaa261; stroke:none;" d="M42 16L42 19L43 19L42 16z"/>
<path style="fill:#8f8642; stroke:none;" d="M33 18C34.3469 25.7569 47.1971 23.3816 53 22L53 21L48 19L47 19C43.7989 21.39 40.3653 21.0391 37 19L36 19L33 18z"/>
<path style="fill:#02070f; stroke:none;" d="M7 21L7 22L15 24L15 23L13 21L19 20L7 21z"/>
<path style="fill:#01060b; stroke:none;" d="M0 20L1 25L2 25L1 21L6 21L0 20z"/>
<path style="fill:#585338; stroke:none;" d="M14 21L23 22L23 20L14 21M63 20L63 22L72 22L63 20z"/>
<path style="fill:#b9c402; stroke:none;" d="M1 23L4 22L1 23z"/>
<path style="fill:#5d681e; stroke:none;" d="M2 22L2 23L18.6682 30.419L23 38C22.8589 25.9377 14.8792 24.8341 5 23L7 22L2 22z"/>
<path style="fill:#262a29; stroke:none;" d="M13 21C19.9522 32.0577 49.0445 28.4629 60 26.5363C64.6459 25.7192 70.2674 25.1199 73 21C53.4959 27.1849 32.4375 27.2153 13 21z"/>
<path style="fill:#576022; stroke:none;" d="M81 21L69 27L69 28C74.1836 27.1189 82.0945 25.6275 85 21L81 21z"/>
<path style="fill:#bdc802; stroke:none;" d="M82.6667 21.3333L83.3333 21.6667L82.6667 21.3333z"/>
<path style="fill:#b4be08; stroke:none;" d="M5 22L5 23L12 24L12 22L5 22z"/>
<path style="fill:#9e9654; stroke:none;" d="M18 22L18 23L33 25L18 22z"/>
<path style="fill:#8f8642; stroke:none;" d="M54 23L54 24L68 23L54 23z"/>
<path style="fill:#b3be09; stroke:none;" d="M74 22L74 24L81 23L74 22z"/>
<path style="fill:#8b9521; stroke:none;" d="M2 23C8.7937 34.9371 15.9773 36.9351 27 43L25 31L24 31L24 39L16 38L16 37C19.991 36.3339 22.458 33.083 18.6813 29.7022C14.8624 26.2834 6.88747 24.3972 2 23z"/>
<path style="fill:#bfaf72; stroke:none;" d="M33 24L33 25L56 25L33 24z"/>
<path style="fill:#bfca01; stroke:none;" d="M16 25L16 26C24.8748 29.9066 21.6056 37.7888 27.5725 41.9722C31.8226 44.952 54.6602 44.7911 58.5664 41.3966C61.6526 38.7146 60.1334 34.4897 62.0278 31.304C64.2453 27.575 69.154 26.2642 73 25L47 27.8302L16 25z"/>
<path style="fill:#8b9521; stroke:none;" d="M69 37L69 38L62 39L62 30L61 30L59 42C71.0983 38.1916 75.7485 34.6481 83 24C78.4878 24.767 54.5141 32.5894 69 37z"/>
<path style="fill:#0a1116; stroke:none;" d="M2 25L9 35L10 35C8.60391 30.3002 6.4719 27.1356 2 25z"/>
<path style="fill:#374121; stroke:none;" d="M62 39L69 38L69 37L63 38C63.1927 32.0623 65.4886 29.1703 71 27C63.0364 24.6837 62.0044 33.2741 62 39z"/>
<path style="fill:#364021; stroke:none;" d="M20 28C22.0009 31.6419 23.6675 34.4001 21 38L21 39C26.5674 37.807 24.2469 29.6719 20 28z"/>
<path style="fill:#000206; stroke:none;" d="M79 28L78 31L79 28z"/>
<path style="fill:#5a641f; stroke:none;" d="M30 29L30 30L35 30L30 29z"/>
<path style="fill:#596420; stroke:none;" d="M51 29L51 30L56 30L51 29z"/>
<path style="fill:#b19409; stroke:none;" d="M28 32L38 33C35.7857 29.5845 30.7997 28.7961 28 32z"/>
<path style="fill:#ab9e10; stroke:none;" d="M47 33L48 34L58 32C54.938 28.4959 49.9029 30.0357 47 33z"/>
<path style="fill:#697123; stroke:none;" d="M64 30L63 38L66 37L64 30z"/>
<path style="fill:#424118; stroke:none;" d="M30 31L30 32L34 32L30 31z"/>
<path style="fill:#3f4218; stroke:none;" d="M52 31L52 32L56 32L52 31z"/>
<path style="fill:#000001; stroke:none;" d="M77 31L73 38C75.9414 36.371 77.7989 34.4535 77 31z"/>
<path style="fill:#040f20; stroke:none;" d="M37 33L33 35C31.9192 29.9564 25.4813 32.7273 27.9444 36.75C30.9624 41.6789 38.6667 38.643 37 33z"/>
<path style="fill:#a7abb1; stroke:none;" d="M33.6667 32.3333L34.3333 32.6667L33.6667 32.3333z"/>
<path style="fill:#040f20; stroke:none;" d="M59 33L54 35L53 32C43.6484 34.8486 55.8504 43.8569 59 33z"/>
<path style="fill:#b4b8bd; stroke:none;" d="M54.6667 32.3333L55.3333 32.6667L54.6667 32.3333z"/>
<path style="fill:#565414; stroke:none;" d="M56 32L56 34L58 32L56 32z"/>
<path style="fill:#fbfcfc; stroke:none;" d="M33 33L33 34L36 34L33 33M53 33L53 34L56 34L53 33z"/>
<path style="fill:#abafb5; stroke:none;" d="M33.6667 34.3333L34.3333 34.6667L33.6667 34.3333z"/>
<path style="fill:#777d86; stroke:none;" d="M54.6667 34.3333L55.3333 34.6667L54.6667 34.3333z"/>
<path style="fill:#000002; stroke:none;" d="M10 35L17 40L17 39L10 35z"/>
<path style="fill:#8c9620; stroke:none;" d="M38 35L31 39L31 40L39 37L42 39L38 35z"/>
<path style="fill:#687221; stroke:none;" d="M44 38L50 39L48 35L44 38z"/>
<path style="fill:#3b4520; stroke:none;" d="M16 37L16 38L21 38L16 37z"/>
<path style="fill:#030914; stroke:none;" d="M59 42L61 46L62 46L62 42L73 39L59 42z"/>
<path style="fill:#000309; stroke:none;" d="M17 40L17 41L23 42L23 48L24 48L25 41L17 40z"/>
<path style="fill:#97ad0d; stroke:none;" d="M39 41L39 42L47 42L39 41z"/>
<path style="fill:#626d10; stroke:none;" d="M41 40L41 41L45 41L41 40z"/>
<path style="fill:#f4bf02; stroke:none;" d="M51 41L51 42L58 40L51 41z"/>
<path style="fill:#1b2226; stroke:none;" d="M25 42L32 47L33 47C37.4261 43.6468 48.5739 43.6468 53 47L54 47L58 44L58 43C47.2442 43 35.2099 46.3262 25 42z"/>
<path style="fill:#8f8642; stroke:none;" d="M58 42L56 47L61 43L58 42z"/>
<path style="fill:#b1aa69; stroke:none;" d="M24 43C24.8887 47.3526 26.5647 49.2987 31 50L32 45L24 43z"/>
<path style="fill:#68730f; stroke:none;" d="M27 43L27 44L47 44L27 43z"/>
<path style="fill:#aba462; stroke:none;" d="M54 47L57 44L54 47z"/>
<path style="fill:#585338; stroke:none;" d="M33 45L35 52C33.6303 60.9639 48.2433 55.1762 53 57L54 57L51 53L51 52L55 51L55 50L53 48L57 48L57 47L53 45L33 45z"/>
<path style="fill:#f1f3f4; stroke:none;" d="M35 45L35 46L51 46L35 45z"/>
<path style="fill:#45493a; stroke:none;" d="M59 46L62 48L61 45L59 46z"/>
<path style="fill:#454e21; stroke:none;" d="M24 46L20 53C26.4366 51.3422 24.8106 58.2869 29 61C27.3885 56.8869 27.575 54.8896 31 52L32 57L33 57L35 53L35 52L34 47L31 50L24 46z"/>
<path style="fill:#01050a; stroke:none;" d="M62 46L64 52L65 52L62 46z"/>
<path style="fill:#2d302b; stroke:none;" d="M54 48L57 52L59 47L54 48z"/>
<path style="fill:#b1aa69; stroke:none;" d="M59 47L63 51L59 47z"/>
<path style="fill:#dbdbd6; stroke:none;" d="M42 48L42 51L39 52L39 53L45 55L46 49L42 48z"/>
<path style="fill:#949f10; stroke:none;" d="M53.3333 48.6667L53.6667 49.3333L53.3333 48.6667z"/>
<path style="fill:#606823; stroke:none;" d="M56 50L59 57L54 57L58 61L60 60L63 52C60.6119 49.2859 59.4342 48.8486 56 50z"/>
<path style="fill:#d2b890; stroke:none;" d="M23.3333 49.6667L23.6667 50.3333L23.3333 49.6667z"/>
<path style="fill:#adab9e; stroke:none;" d="M39 49L39 52L42 51L42 50L39 49z"/>
<path style="fill:#77735e; stroke:none;" d="M43 50L44 51L43 50z"/>
<path style="fill:#d2b890; stroke:none;" d="M22 51L23 52L22 51z"/>
<path style="fill:#747059; stroke:none;" d="M44 51L45 52L44 51z"/>
<path style="fill:#a5b011; stroke:none;" d="M51 52L51 53L54 57L59 57C57.7277 52.716 55.4037 51.1859 51 52z"/>
<path style="fill:#9c9451; stroke:none;" d="M57 65C64.9725 65.2928 65.8287 57.2006 64 51L57 65z"/>
<path style="fill:#867e40; stroke:none;" d="M21 60L22 60L22 54L25 54L25 60C28.2156 52.2526 18.7763 50.2073 21 60z"/>
<path style="fill:#a7b206; stroke:none;" d="M27 57L32 57L31 52L27 57z"/>
<path style="fill:#a6a496; stroke:none;" d="M38 52L45 56L45 55L38 52z"/>
<path style="fill:#3c3a37; stroke:none;" d="M65 52L65 58L66 58L65 52z"/>
<path style="fill:#69644c; stroke:none;" d="M44 53L45 54L44 53z"/>
<path style="fill:#b0a968; stroke:none;" d="M22 54L25 63L26 63L25 54L22 54z"/>
<path style="fill:#030e1e; stroke:none;" d="M33 55L27 61L25 65L25 66L37 58L37 57L33 55M51 55L49 57L49 58L56 65L59 59L58 59L53 55L51 55z"/>
<path style="fill:#6a7223; stroke:none;" d="M27 57C28.7722 59.6816 30.2278 59.6816 32 57L27 57z"/>
<path style="fill:#2f322b; stroke:none;" d="M37 57L37 58L49 58L37 57z"/>
<path style="fill:#000001; stroke:none;" d="M20 58L24 65L20 58z"/>
<path style="fill:#000103; stroke:none;" d="M38 58L38 59L48 59L38 58z"/>
<path style="fill:#02050d; stroke:none;" d="M65 58L64 63L65 63L65 58z"/>
<path style="fill:#8f8642; stroke:none;" d="M22 60C23.0567 63.4918 24.4176 64.432 28 65L27 60L26 60L25 63L22 60z"/>
<path style="fill:#10120f; stroke:none;" d="M63 63L64 64L63 63z"/>
<path style="fill:#0e100f; stroke:none;" d="M62 64L63 65L62 64z"/>
<path style="fill:#504b25; stroke:none;" d="M57.6667 65.3333L58.3333 65.6667L57.6667 65.3333z"/>
<path style="fill:#000205; stroke:none;" d="M60.6667 65.3333L61.3333 65.6667L60.6667 65.3333z"/>
</svg>
