<svg width="103" height="18" viewBox="0 0 103 18" fill="none" xmlns="http://www.w3.org/2000/svg">
<path fill-rule="evenodd" clip-rule="evenodd" d="M2.51135 2.7632C4.14889 1.05996 6.45066 0 9 0C12.247 0 15.0924 1.71946 16.6753 4.29751C15.9133 3.55896 15.0567 2.93994 14.1129 2.448C10.7357 0.684 6.4172 0.684 3.05181 2.46C2.86824 2.55636 2.68807 2.65745 2.51135 2.7632ZM0.179461 10.7972C0.0617743 10.2165 0 9.61544 0 9C0 8.49784 0.0411258 8.00529 0.120193 7.52553C1.83104 4.62321 5.04955 2.784 8.54705 2.784C13.0781 2.784 16.8928 5.80063 17.9585 9.8701C17.7376 12.1729 16.6489 14.2224 15.0232 15.6875C14.8943 15.701 14.7633 15.708 14.6306 15.708C12.6302 15.708 11.0064 14.124 11.0064 12.18C11.0064 10.896 9.91204 9.852 8.55882 9.852C7.2056 9.852 6.11126 10.896 6.11126 12.18C6.11126 14.232 6.88789 16.152 8.31171 17.592C8.45296 17.7345 8.59347 17.869 8.7345 17.9962C8.08865 17.9774 7.45985 17.8907 6.85503 17.7428C5.61006 16.1788 4.93455 14.2435 4.93455 12.192C4.93455 10.248 6.55841 8.664 8.55882 8.664C10.5592 8.664 12.1831 10.248 12.1831 12.192C12.1831 13.476 13.2774 14.52 14.6306 14.52C15.9839 14.52 17.0782 13.476 17.0782 12.192C17.0782 7.668 13.2539 3.996 8.54705 3.996C5.20519 3.996 2.14574 5.892 0.768989 8.832C0.487395 9.42842 0.289979 10.0881 0.179461 10.7972ZM4.05058 16.5181C3.37945 16.0753 2.7711 15.5452 2.24176 14.9438C2.03797 14.0745 1.93393 13.1495 1.93393 12.192C1.93393 8.628 4.92278 5.724 8.59412 5.724C12.2655 5.724 15.2543 8.628 15.2543 12.192C15.2543 12.528 14.9954 12.792 14.666 12.792C14.3365 12.792 14.0776 12.528 14.0776 12.192C14.0776 9.288 11.6183 6.924 8.59412 6.924C5.56997 6.924 3.11065 9.288 3.11065 12.192C3.11065 13.7915 3.43329 15.278 4.05058 16.5181ZM12.8594 17.1328C12.324 17.3873 11.7596 17.5905 11.1724 17.7361C11.0226 17.6508 10.877 17.5588 10.7357 17.46C8.98243 16.248 7.93516 14.28 7.93516 12.192C7.93516 11.856 8.19404 11.592 8.52352 11.592C8.853 11.592 9.11187 11.856 9.11187 12.192C9.11187 13.884 9.95911 15.48 11.3947 16.464C11.8399 16.7709 12.3251 16.9926 12.8594 17.1328Z" fill="#FFB700"/>
<path fill-rule="evenodd" clip-rule="evenodd" d="M2.51135 2.7632C4.14889 1.05996 6.45066 0 9 0C12.247 0 15.0924 1.71946 16.6753 4.29751C15.9133 3.55896 15.0567 2.93994 14.1129 2.448C10.7357 0.684 6.4172 0.684 3.05181 2.46C2.86824 2.55636 2.68807 2.65745 2.51135 2.7632ZM0.179461 10.7972C0.0617743 10.2165 0 9.61544 0 9C0 8.49784 0.0411258 8.00529 0.120193 7.52553C1.83104 4.62321 5.04955 2.784 8.54705 2.784C13.0781 2.784 16.8928 5.80063 17.9585 9.8701C17.7376 12.1729 16.6489 14.2224 15.0232 15.6875C14.8943 15.701 14.7633 15.708 14.6306 15.708C12.6302 15.708 11.0064 14.124 11.0064 12.18C11.0064 10.896 9.91204 9.852 8.55882 9.852C7.2056 9.852 6.11126 10.896 6.11126 12.18C6.11126 14.232 6.88789 16.152 8.31171 17.592C8.45296 17.7345 8.59347 17.869 8.7345 17.9962C8.08865 17.9774 7.45985 17.8907 6.85503 17.7428C5.61006 16.1788 4.93455 14.2435 4.93455 12.192C4.93455 10.248 6.55841 8.664 8.55882 8.664C10.5592 8.664 12.1831 10.248 12.1831 12.192C12.1831 13.476 13.2774 14.52 14.6306 14.52C15.9839 14.52 17.0782 13.476 17.0782 12.192C17.0782 7.668 13.2539 3.996 8.54705 3.996C5.20519 3.996 2.14574 5.892 0.768989 8.832C0.487395 9.42842 0.289979 10.0881 0.179461 10.7972ZM4.05058 16.5181C3.37945 16.0753 2.7711 15.5452 2.24176 14.9438C2.03797 14.0745 1.93393 13.1495 1.93393 12.192C1.93393 8.628 4.92278 5.724 8.59412 5.724C12.2655 5.724 15.2543 8.628 15.2543 12.192C15.2543 12.528 14.9954 12.792 14.666 12.792C14.3365 12.792 14.0776 12.528 14.0776 12.192C14.0776 9.288 11.6183 6.924 8.59412 6.924C5.56997 6.924 3.11065 9.288 3.11065 12.192C3.11065 13.7915 3.43329 15.278 4.05058 16.5181ZM12.8594 17.1328C12.324 17.3873 11.7596 17.5905 11.1724 17.7361C11.0226 17.6508 10.877 17.5588 10.7357 17.46C8.98243 16.248 7.93516 14.28 7.93516 12.192C7.93516 11.856 8.19404 11.592 8.52352 11.592C8.853 11.592 9.11187 11.856 9.11187 12.192C9.11187 13.884 9.95911 15.48 11.3947 16.464C11.8399 16.7709 12.3251 16.9926 12.8594 17.1328Z" fill="url(#paint0_linear)"/>
<path d="M36.5391 14.5898L31.7578 6.375V13.8047C31.7578 14.0469 31.8125 14.2344 31.9219 14.3672C32.0312 14.4922 32.2266 14.5977 32.5078 14.6836V15H28.1484V14.6719C28.4219 14.6016 28.6133 14.5 28.7227 14.3672C28.8398 14.2344 28.8984 14.0469 28.8984 13.8047V3.07031C28.8984 2.82812 28.8438 2.64453 28.7344 2.51953C28.625 2.38672 28.4297 2.28125 28.1484 2.20312V1.875H33.6914V2.20312C33.3242 2.32031 33.1406 2.54297 33.1406 2.87109C33.1406 3.19141 33.2734 3.58203 33.5391 4.04297L36.8086 9.5625L40.1016 4.125C40.4766 3.50781 40.6641 3.07031 40.6641 2.8125C40.6641 2.49219 40.4727 2.28906 40.0898 2.20312V1.875H45.4922V2.20312C45.2109 2.28125 45.0156 2.38672 44.9062 2.51953C44.7969 2.64453 44.7422 2.82812 44.7422 3.07031V13.8047C44.7422 14.0469 44.7969 14.2344 44.9062 14.3672C45.0156 14.5 45.2109 14.6055 45.4922 14.6836V15H40.8516V14.6719C41.125 14.6016 41.3164 14.5 41.4258 14.3672C41.543 14.2344 41.6016 14.0469 41.6016 13.8047V6.375L36.5391 14.5898Z" fill="#FFB700"/>
<path d="M36.5391 14.5898L31.7578 6.375V13.8047C31.7578 14.0469 31.8125 14.2344 31.9219 14.3672C32.0312 14.4922 32.2266 14.5977 32.5078 14.6836V15H28.1484V14.6719C28.4219 14.6016 28.6133 14.5 28.7227 14.3672C28.8398 14.2344 28.8984 14.0469 28.8984 13.8047V3.07031C28.8984 2.82812 28.8438 2.64453 28.7344 2.51953C28.625 2.38672 28.4297 2.28125 28.1484 2.20312V1.875H33.6914V2.20312C33.3242 2.32031 33.1406 2.54297 33.1406 2.87109C33.1406 3.19141 33.2734 3.58203 33.5391 4.04297L36.8086 9.5625L40.1016 4.125C40.4766 3.50781 40.6641 3.07031 40.6641 2.8125C40.6641 2.49219 40.4727 2.28906 40.0898 2.20312V1.875H45.4922V2.20312C45.2109 2.28125 45.0156 2.38672 44.9062 2.51953C44.7969 2.64453 44.7422 2.82812 44.7422 3.07031V13.8047C44.7422 14.0469 44.7969 14.2344 44.9062 14.3672C45.0156 14.5 45.2109 14.6055 45.4922 14.6836V15H40.8516V14.6719C41.125 14.6016 41.3164 14.5 41.4258 14.3672C41.543 14.2344 41.6016 14.0469 41.6016 13.8047V6.375L36.5391 14.5898Z" fill="url(#paint1_linear)"/>
<path d="M51.9531 3.07031V13.8047C51.9531 14.0469 52.0078 14.2344 52.1172 14.3672C52.2266 14.4922 52.4219 14.5977 52.7031 14.6836V15H48.0625V14.6719C48.3359 14.6016 48.5273 14.5 48.6367 14.3672C48.7539 14.2344 48.8125 14.0469 48.8125 13.8047V3.07031C48.8125 2.82812 48.7578 2.64453 48.6484 2.51953C48.5391 2.39453 48.3438 2.28906 48.0625 2.20312V1.875H52.7031V2.20312C52.4219 2.28125 52.2266 2.38672 52.1172 2.51953C52.0078 2.64453 51.9531 2.82812 51.9531 3.07031Z" fill="#FFB700"/>
<path d="M51.9531 3.07031V13.8047C51.9531 14.0469 52.0078 14.2344 52.1172 14.3672C52.2266 14.4922 52.4219 14.5977 52.7031 14.6836V15H48.0625V14.6719C48.3359 14.6016 48.5273 14.5 48.6367 14.3672C48.7539 14.2344 48.8125 14.0469 48.8125 13.8047V3.07031C48.8125 2.82812 48.7578 2.64453 48.6484 2.51953C48.5391 2.39453 48.3438 2.28906 48.0625 2.20312V1.875H52.7031V2.20312C52.4219 2.28125 52.2266 2.38672 52.1172 2.51953C52.0078 2.64453 51.9531 2.82812 51.9531 3.07031Z" fill="url(#paint2_linear)"/>
<path d="M56.0234 13.8047V3.07031C56.0234 2.82812 55.9688 2.64453 55.8594 2.51953C55.75 2.39453 55.5547 2.28906 55.2734 2.20312V1.875H62.9727C64.5742 1.875 65.8359 2.07422 66.7578 2.47266C68.0547 3.03516 68.9883 3.96484 69.5586 5.26172C69.957 6.16797 70.1562 7.22656 70.1562 8.4375C70.1562 10.6797 69.4883 12.3789 68.1523 13.5352C67.5508 14.0508 66.8398 14.4258 66.0195 14.6602C65.207 14.8867 64.1914 15 62.9727 15H55.2734V14.6719C55.5469 14.6016 55.7383 14.5 55.8477 14.3672C55.9648 14.2344 56.0234 14.0469 56.0234 13.8047ZM59.1641 12.6211H62.5156C64.0547 12.6211 65.1719 12.2695 65.8672 11.5664C66.5938 10.832 66.957 9.78906 66.957 8.4375C66.957 7.08594 66.5938 6.04297 65.8672 5.30859C65.5078 4.94141 65.0625 4.67578 64.5312 4.51172C64 4.33984 63.3281 4.25391 62.5156 4.25391H59.1641V12.6211Z" fill="#FFB700"/>
<path d="M56.0234 13.8047V3.07031C56.0234 2.82812 55.9688 2.64453 55.8594 2.51953C55.75 2.39453 55.5547 2.28906 55.2734 2.20312V1.875H62.9727C64.5742 1.875 65.8359 2.07422 66.7578 2.47266C68.0547 3.03516 68.9883 3.96484 69.5586 5.26172C69.957 6.16797 70.1562 7.22656 70.1562 8.4375C70.1562 10.6797 69.4883 12.3789 68.1523 13.5352C67.5508 14.0508 66.8398 14.4258 66.0195 14.6602C65.207 14.8867 64.1914 15 62.9727 15H55.2734V14.6719C55.5469 14.6016 55.7383 14.5 55.8477 14.3672C55.9648 14.2344 56.0234 14.0469 56.0234 13.8047ZM59.1641 12.6211H62.5156C64.0547 12.6211 65.1719 12.2695 65.8672 11.5664C66.5938 10.832 66.957 9.78906 66.957 8.4375C66.957 7.08594 66.5938 6.04297 65.8672 5.30859C65.5078 4.94141 65.0625 4.67578 64.5312 4.51172C64 4.33984 63.3281 4.25391 62.5156 4.25391H59.1641V12.6211Z" fill="url(#paint3_linear)"/>
<path d="M82.3711 11.7188H76.3359L75.6562 13.1484C75.4922 13.4922 75.4102 13.7617 75.4102 13.957C75.4102 14.332 75.6602 14.5703 76.1602 14.6719V15H71.332V14.6719C71.6289 14.625 71.8477 14.5352 71.9883 14.4023C72.1367 14.2695 72.3086 14.0078 72.5039 13.6172L77.2969 3.91406C77.4766 3.54688 77.5664 3.22656 77.5664 2.95312C77.5664 2.63281 77.3477 2.38281 76.9102 2.20312V1.875H82.0078V2.20312C81.5781 2.375 81.3633 2.64062 81.3633 3C81.3633 3.25781 81.4609 3.57422 81.6562 3.94922L86.625 13.3594C86.8984 13.875 87.1133 14.2109 87.2695 14.3672C87.4258 14.5156 87.6641 14.6211 87.9844 14.6836V15H82.6289V14.6836C83.1367 14.5977 83.3906 14.3594 83.3906 13.9688C83.3906 13.7266 83.293 13.4258 83.0977 13.0664L82.3711 11.7188ZM81.4219 9.87891L79.2773 5.67188L77.2383 9.87891H81.4219Z" fill="#FFB700"/>
<path d="M82.3711 11.7188H76.3359L75.6562 13.1484C75.4922 13.4922 75.4102 13.7617 75.4102 13.957C75.4102 14.332 75.6602 14.5703 76.1602 14.6719V15H71.332V14.6719C71.6289 14.625 71.8477 14.5352 71.9883 14.4023C72.1367 14.2695 72.3086 14.0078 72.5039 13.6172L77.2969 3.91406C77.4766 3.54688 77.5664 3.22656 77.5664 2.95312C77.5664 2.63281 77.3477 2.38281 76.9102 2.20312V1.875H82.0078V2.20312C81.5781 2.375 81.3633 2.64062 81.3633 3C81.3633 3.25781 81.4609 3.57422 81.6562 3.94922L86.625 13.3594C86.8984 13.875 87.1133 14.2109 87.2695 14.3672C87.4258 14.5156 87.6641 14.6211 87.9844 14.6836V15H82.6289V14.6836C83.1367 14.5977 83.3906 14.3594 83.3906 13.9688C83.3906 13.7266 83.293 13.4258 83.0977 13.0664L82.3711 11.7188ZM81.4219 9.87891L79.2773 5.67188L77.2383 9.87891H81.4219Z" fill="url(#paint4_linear)"/>
<path d="M101.957 3.05859L100.375 6.11719L100.094 5.96484C100.094 5.70703 100.012 5.50391 99.8477 5.35547C99.4023 4.95703 98.7461 4.62891 97.8789 4.37109C97.0117 4.11328 96.1328 3.98438 95.2422 3.98438C94.4844 3.98438 93.8125 4.08984 93.2266 4.30078C92.3828 4.60547 91.9609 5.04688 91.9609 5.625C91.9609 6.00781 92.1641 6.28125 92.5703 6.44531C92.9766 6.60156 93.7617 6.72656 94.9258 6.82031L96.7773 6.96094C98.3945 7.08594 99.625 7.39844 100.469 7.89844C100.938 8.17969 101.324 8.55469 101.629 9.02344C102.012 9.60938 102.203 10.2695 102.203 11.0039C102.203 12.3398 101.602 13.3945 100.398 14.168C99.25 14.9102 97.6953 15.2812 95.7344 15.2812C93.7578 15.2812 91.8477 14.8633 90.0039 14.0273C89.8789 13.9727 89.7734 13.9453 89.6875 13.9453C89.5312 13.9453 89.3867 14.0391 89.2539 14.2266L88.9609 14.1094L90.3086 10.8984L90.6016 11.0156C90.6016 11.0625 90.6016 11.0938 90.6016 11.1094C90.6016 11.3125 90.6797 11.4844 90.8359 11.625C91.2266 11.9688 91.9023 12.2695 92.8633 12.5273C93.8242 12.7773 94.7734 12.9023 95.7109 12.9023C96.5391 12.9023 97.2812 12.793 97.9375 12.5742C98.75 12.3086 99.1562 11.8789 99.1562 11.2852C99.1562 10.8086 98.875 10.4766 98.3125 10.2891C97.9375 10.1641 97.2617 10.0586 96.2852 9.97266L94.4453 9.82031C93.4531 9.74219 92.6953 9.64062 92.1719 9.51562C91.6484 9.39062 91.1914 9.20703 90.8008 8.96484C90.3008 8.65234 89.9102 8.22656 89.6289 7.6875C89.3477 7.14844 89.207 6.55859 89.207 5.91797C89.207 4.48047 89.8242 3.38281 91.0586 2.625C92.1836 1.9375 93.5742 1.59375 95.2305 1.59375C96.1289 1.59375 96.9648 1.69531 97.7383 1.89844C98.5195 2.09375 99.4492 2.44141 100.527 2.94141C100.848 3.08984 101.07 3.16406 101.195 3.16406C101.32 3.16406 101.48 3.07812 101.676 2.90625L101.957 3.05859Z" fill="#FFB700"/>
<path d="M101.957 3.05859L100.375 6.11719L100.094 5.96484C100.094 5.70703 100.012 5.50391 99.8477 5.35547C99.4023 4.95703 98.7461 4.62891 97.8789 4.37109C97.0117 4.11328 96.1328 3.98438 95.2422 3.98438C94.4844 3.98438 93.8125 4.08984 93.2266 4.30078C92.3828 4.60547 91.9609 5.04688 91.9609 5.625C91.9609 6.00781 92.1641 6.28125 92.5703 6.44531C92.9766 6.60156 93.7617 6.72656 94.9258 6.82031L96.7773 6.96094C98.3945 7.08594 99.625 7.39844 100.469 7.89844C100.938 8.17969 101.324 8.55469 101.629 9.02344C102.012 9.60938 102.203 10.2695 102.203 11.0039C102.203 12.3398 101.602 13.3945 100.398 14.168C99.25 14.9102 97.6953 15.2812 95.7344 15.2812C93.7578 15.2812 91.8477 14.8633 90.0039 14.0273C89.8789 13.9727 89.7734 13.9453 89.6875 13.9453C89.5312 13.9453 89.3867 14.0391 89.2539 14.2266L88.9609 14.1094L90.3086 10.8984L90.6016 11.0156C90.6016 11.0625 90.6016 11.0938 90.6016 11.1094C90.6016 11.3125 90.6797 11.4844 90.8359 11.625C91.2266 11.9688 91.9023 12.2695 92.8633 12.5273C93.8242 12.7773 94.7734 12.9023 95.7109 12.9023C96.5391 12.9023 97.2812 12.793 97.9375 12.5742C98.75 12.3086 99.1562 11.8789 99.1562 11.2852C99.1562 10.8086 98.875 10.4766 98.3125 10.2891C97.9375 10.1641 97.2617 10.0586 96.2852 9.97266L94.4453 9.82031C93.4531 9.74219 92.6953 9.64062 92.1719 9.51562C91.6484 9.39062 91.1914 9.20703 90.8008 8.96484C90.3008 8.65234 89.9102 8.22656 89.6289 7.6875C89.3477 7.14844 89.207 6.55859 89.207 5.91797C89.207 4.48047 89.8242 3.38281 91.0586 2.625C92.1836 1.9375 93.5742 1.59375 95.2305 1.59375C96.1289 1.59375 96.9648 1.69531 97.7383 1.89844C98.5195 2.09375 99.4492 2.44141 100.527 2.94141C100.848 3.08984 101.07 3.16406 101.195 3.16406C101.32 3.16406 101.48 3.07812 101.676 2.90625L101.957 3.05859Z" fill="url(#paint5_linear)"/>
<defs>
<linearGradient id="paint0_linear" x1="8.58824" y1="-3" x2="8.58824" y2="21" gradientUnits="userSpaceOnUse">
<stop stop-color="#9F7300"/>
<stop offset="1" stop-color="white" stop-opacity="0"/>
</linearGradient>
<linearGradient id="paint1_linear" x1="65" y1="4" x2="65" y2="18" gradientUnits="userSpaceOnUse">
<stop offset="0.296875" stop-color="#9F7300" stop-opacity="0.5"/>
<stop offset="1" stop-color="white" stop-opacity="0"/>
</linearGradient>
<linearGradient id="paint2_linear" x1="65" y1="4" x2="65" y2="18" gradientUnits="userSpaceOnUse">
<stop offset="0.296875" stop-color="#9F7300" stop-opacity="0.5"/>
<stop offset="1" stop-color="white" stop-opacity="0"/>
</linearGradient>
<linearGradient id="paint3_linear" x1="65" y1="4" x2="65" y2="18" gradientUnits="userSpaceOnUse">
<stop offset="0.296875" stop-color="#9F7300" stop-opacity="0.5"/>
<stop offset="1" stop-color="white" stop-opacity="0"/>
</linearGradient>
<linearGradient id="paint4_linear" x1="65" y1="4" x2="65" y2="18" gradientUnits="userSpaceOnUse">
<stop offset="0.296875" stop-color="#9F7300" stop-opacity="0.5"/>
<stop offset="1" stop-color="white" stop-opacity="0"/>
</linearGradient>
<linearGradient id="paint5_linear" x1="65" y1="4" x2="65" y2="18" gradientUnits="userSpaceOnUse">
<stop offset="0.296875" stop-color="#9F7300" stop-opacity="0.5"/>
<stop offset="1" stop-color="white" stop-opacity="0"/>
</linearGradient>
</defs>
</svg>
